<svg id="Effect" enable-background="new 0 0 36 36" height="512" viewBox="0 0 36 36" width="512" xmlns="http://www.w3.org/2000/svg"><g><path d="m4.167 8.377c0 6.917-3.583 11.667-3.583 15s1.916 10.333 17.249 10.333 17.583-9.417 17.583-13.083c.001-17.167-31.249-24.5-31.249-12.25z" fill="#efefef"/></g><g><path d="m20.25 9.75h-2v1c0 .552-.448 1-1 1h-5.5c-.552 0-1-.448-1-1v-1h-2c-1.1 0-2 .9-2 2v12.5c0 1.1.9 2 2 2h11.5c1.1 0 2-.9 2-2v-12.5c0-1.1-.9-2-2-2z" fill="#f3f3f1"/></g><g><path d="m18.25 8.75v2c0 .552-.448 1-1 1h-5.5c-.552 0-1-.448-1-1v-2h1.75c0-1.1.9-2 2-2s2 .9 2 2z" fill="#2fdf84"/></g><g><path d="m29.25 28.295c0 .525-.433.955-.962.955h-10.576c-.529 0-.962-.43-.962-.955 0-.181.048-.353.144-.496l5.288-8.591c.163-.277.471-.458.817-.458s.654.181.817.458l5.288 8.591c.098.143.146.315.146.496z" fill="#2fdf84"/></g><g><path d="m20.5 10.75v-.975c-.083-.011-.164-.025-.25-.025h-2v1c0 .552-.448 1-1 1h2.25c.552 0 1-.448 1-1z" fill="#d5dbe1"/></g><g><path d="m9 24.25v-12.5c0-1.014.768-1.849 1.75-1.975v-.025h-2c-1.1 0-2 .9-2 2v12.5c0 1.1.9 2 2 2h2.25c-1.1 0-2-.9-2-2z" fill="#d5dbe1"/></g><g><path d="m13 10.75v-2h1.75c0-.683.348-1.289.875-1.65-.321-.22-.708-.35-1.125-.35-1.1 0-2 .9-2 2h-1.75v2c0 .552.448 1 1 1h2.25c-.552 0-1-.448-1-1z" fill="#00b871"/></g><g><path d="m19 28.295c0-.181.048-.353.144-.496l4.981-8.091-.308-.5c-.163-.277-.471-.458-.817-.458s-.654.181-.817.458l-5.289 8.591c-.096.143-.144.315-.144.496 0 .525.433.955.962.955h2.25c-.529 0-.962-.43-.962-.955z" fill="#00b871"/></g><g><path d="m28.288 30h-10.576c-.944 0-1.712-.765-1.712-1.704 0-.335.094-.651.272-.916l5.271-8.565c.295-.499.855-.815 1.457-.815s1.162.316 1.463.827l5.281 8.578c.162.24.256.556.256.891 0 .939-.768 1.704-1.712 1.704zm-5.288-10.5c-.088 0-.147.048-.172.089l-5.328 8.707c0 .11.097.204.212.204h10.576c.115 0 .212-.094.212-.204 0-.033-.006-.062-.017-.078l-5.305-8.616c-.031-.054-.09-.102-.178-.102z"/></g><g><path d="m22.25 22h1.5v3.5h-1.5z"/></g><g><circle cx="23" cy="27.25" r=".75"/></g><g><path d="m14.33 27h-5.58c-1.517 0-2.75-1.233-2.75-2.75v-12.5c0-1.517 1.233-2.75 2.75-2.75h1.88v1.5h-1.88c-.689 0-1.25.561-1.25 1.25v12.5c0 .689.561 1.25 1.25 1.25h5.58z"/></g><g><path d="m23 15.83h-1.5v-4.08c0-.689-.561-1.25-1.25-1.25h-1.87v-1.5h1.87c1.517 0 2.75 1.233 2.75 2.75z"/></g><g><path d="m17.25 12.5h-5.5c-.965 0-1.75-.785-1.75-1.75v-2c0-.414.336-.75.75-.75h1.104c.328-1.153 1.39-2 2.646-2s2.318.847 2.646 2h1.104c.414 0 .75.336.75.75v2c0 .965-.785 1.75-1.75 1.75zm-5.75-3v1.25c0 .138.112.25.25.25h5.5c.138 0 .25-.112.25-.25v-1.25h-1c-.414 0-.75-.336-.75-.75 0-.689-.561-1.25-1.25-1.25s-1.25.561-1.25 1.25c0 .414-.336.75-.75.75z"/></g><g><path d="m9.75 14h9.5v1.5h-9.5z"/></g><g><path d="m9.75 17h9.5v1.5h-9.5z"/></g><g><path d="m9.75 20h7.96v1.5h-7.96z"/></g><g><path d="m30 19.25c-.827 0-1.5-.673-1.5-1.5s.673-1.5 1.5-1.5 1.5.673 1.5 1.5-.673 1.5-1.5 1.5zm0-2c-.275 0-.5.225-.5.5s.225.5.5.5.5-.225.5-.5-.225-.5-.5-.5z" fill="#a4afc1"/></g><g><path d="m6.418 4.546h2v1h-2z" fill="#a4afc1" transform="matrix(.707 -.707 .707 .707 -1.396 6.723)"/></g><g><path d="m2.352 8.612h2v1h-2z" fill="#a4afc1" transform="matrix(.707 -.707 .707 .707 -5.462 5.039)"/></g><g><path d="m3.029 4.046h1v2.001h-1z" fill="#a4afc1" transform="matrix(.707 -.707 .707 .707 -2.535 3.973)"/></g></svg>